<svg xmlns="http://www.w3.org/2000/svg" xmlns:xlink="http://www.w3.org/1999/xlink" viewBox="0 0 331.96 261.49"><defs><linearGradient id="a" x1="164.72" y1="207" x2="164.72" y2="9" gradientUnits="userSpaceOnUse"><stop offset="0" stop-color="#0071bc"/><stop offset="1" stop-color="#1a8bd6"/></linearGradient><linearGradient id="b" x1="167.6" y1="0" x2="167.6" y2="216" xlink:href="#a"/></defs><title>NumericAnnex</title><circle cx="164.72" cy="108" r="99" fill="url(#a)"/><path d="M167.6,9a99,99,0,1,1-99,99,99,99,0,0,1,99-99m0-9A108,108,0,0,0,91.23,184.37,108,108,0,0,0,244,31.63,107.29,107.29,0,0,0,167.6,0Z" transform="translate(-2.88)" fill="url(#b)"/><rect x="119.72" y="72" width="9" height="72" rx="4.5" ry="4.5" fill="#fff"/><rect x="122.6" y="72" width="9" height="72" rx="4.5" ry="4.5" transform="translate(-32.86 164.07) rotate(-60)" fill="#fff"/><rect x="122.6" y="72" width="9" height="72" rx="4.5" ry="4.5" transform="translate(154.2 -56.07) rotate(60)" fill="#fff"/><rect x="200.72" y="72" width="9" height="72" rx="4.5" ry="4.5" fill="#fff"/><rect x="203.6" y="72" width="9" height="72" rx="4.5" ry="4.5" transform="translate(7.64 234.22) rotate(-60)" fill="#fff"/><rect x="203.6" y="72" width="9" height="72" rx="4.5" ry="4.5" transform="matrix(0.5, 0.87, -0.87, 0.5, 194.7, -126.22)" fill="#fff"/><path d="M25.57,261H19L9.52,239v22H2.88V226.88H9.52l9.42,21.91,0-21.91h6.61Z" transform="translate(-2.88)" fill="#0071bc"/><path d="M47.49,257.44a9.78,9.78,0,0,1-3.11,3,7.64,7.64,0,0,1-4,1.08,10.29,10.29,0,0,1-3.61-.61A6.92,6.92,0,0,1,34,258.95a9.16,9.16,0,0,1-1.82-3.37,16.58,16.58,0,0,1-.64-4.93v-15H38v15a12.85,12.85,0,0,0,.22,2.6A4.2,4.2,0,0,0,39,255a2.72,2.72,0,0,0,1.29.93,5.88,5.88,0,0,0,1.95.28,6,6,0,0,0,3.16-.74,4.79,4.79,0,0,0,1.85-2V235.64h6.54V261H47.87Z" transform="translate(-2.88)" fill="#0071bc"/><path d="M64.87,235.64l.19,3.07a6.34,6.34,0,0,1,2-2.59,5.06,5.06,0,0,1,3.11-.95,3.83,3.83,0,0,1,4,2.7,5.67,5.67,0,0,1,1.91-2,5.24,5.24,0,0,1,2.8-.71,5.44,5.44,0,0,1,2.14.42,4.4,4.4,0,0,1,1.73,1.35,6.68,6.68,0,0,1,1.15,2.39,13.42,13.42,0,0,1,.41,3.57V261H78.4V242.88a3.94,3.94,0,0,0-.15-1.2,1.9,1.9,0,0,0-.41-.74,1.39,1.39,0,0,0-.6-.37,2.32,2.32,0,0,0-.69-.11,2,2,0,0,0-1.15.32,2.1,2.1,0,0,0-.73.86V261H68.93V242.86a4.25,4.25,0,0,0-.14-1.2,1.77,1.77,0,0,0-.39-.73,1.36,1.36,0,0,0-.57-.36,2.28,2.28,0,0,0-.7-.11,1.71,1.71,0,0,0-1.21.42A2.82,2.82,0,0,0,65.2,242v19H59.27V235.64Z" transform="translate(-2.88)" fill="#0071bc"/><path d="M102,261.47a14.15,14.15,0,0,1-5.32-1,12.58,12.58,0,0,1-4.1-2.61A11.41,11.41,0,0,1,89.92,254a12.41,12.41,0,0,1-.93-4.79v-.94a14.82,14.82,0,0,1,.91-5.31,12.31,12.31,0,0,1,2.55-4.14,11.52,11.52,0,0,1,3.89-2.7,12.34,12.34,0,0,1,4.9-1,12.5,12.5,0,0,1,4.89.9,10.14,10.14,0,0,1,3.63,2.54,11,11,0,0,1,2.26,3.95,16,16,0,0,1,.77,5.1v2.77H95.61a7.07,7.07,0,0,0,.76,2.36,6.44,6.44,0,0,0,3.5,3,7.22,7.22,0,0,0,2.51.42,9.83,9.83,0,0,0,1.91-.19,9.4,9.4,0,0,0,1.82-.55,8.17,8.17,0,0,0,1.62-.9,6.3,6.3,0,0,0,1.31-1.27l3.26,3.52a9.31,9.31,0,0,1-1.58,1.7,10.75,10.75,0,0,1-2.3,1.48,14.79,14.79,0,0,1-2.94,1A14.57,14.57,0,0,1,102,261.47Zm-.77-21a5.12,5.12,0,0,0-2,.39,4.75,4.75,0,0,0-1.61,1.11,6.41,6.41,0,0,0-1.16,1.73,9.49,9.49,0,0,0-.7,2.25h10.69v-.52a6.16,6.16,0,0,0-.4-1.95,4.57,4.57,0,0,0-1-1.58,4.71,4.71,0,0,0-1.61-1.05A5.77,5.77,0,0,0,101.21,240.45Z" transform="translate(-2.88)" fill="#0071bc"/><path d="M134.52,235.17a17.44,17.44,0,0,1,2.73.2,15.75,15.75,0,0,1,2,.43l-1,6.49a22.38,22.38,0,0,0-2.64-.46,22.88,22.88,0,0,0-2.57-.15,8.08,8.08,0,0,0-4.39,1.05,6.39,6.39,0,0,0-2.47,3V261h-6.52V235.64h6.07l.3,4.15a11.64,11.64,0,0,1,3.7-3.39A9.34,9.34,0,0,1,134.52,235.17Z" transform="translate(-2.88)" fill="#0071bc"/><path d="M144.85,235.64h13.8V255.7h6.87V261H144.85v-5.3h7.22V241h-7.22Zm6.75-6.49a3.58,3.58,0,0,1,.27-1.39,3.13,3.13,0,0,1,.76-1.1,3.53,3.53,0,0,1,1.18-.71,4.36,4.36,0,0,1,1.54-.26,3.82,3.82,0,0,1,2.75,1,3.57,3.57,0,0,1,0,5,3.82,3.82,0,0,1-2.75,1,4.36,4.36,0,0,1-1.54-.26,3.53,3.53,0,0,1-1.18-.71,3.13,3.13,0,0,1-.76-1.1A3.58,3.58,0,0,1,151.6,229.15Z" transform="translate(-2.88)" fill="#0071bc"/><path d="M181.44,256.27a5.89,5.89,0,0,0,1.83-.28,4.87,4.87,0,0,0,1.52-.8,3.63,3.63,0,0,0,1-1.24,3.18,3.18,0,0,0,.32-1.62h6.14a7.56,7.56,0,0,1-.81,3.66,9,9,0,0,1-2.33,2.91,11.2,11.2,0,0,1-3.43,1.91,12.33,12.33,0,0,1-4.14.69,12.58,12.58,0,0,1-5.18-1,10.42,10.42,0,0,1-3.71-2.73,11.79,11.79,0,0,1-2.25-4.07,16,16,0,0,1-.76-5V248a16.25,16.25,0,0,1,.75-5,11.54,11.54,0,0,1,2.25-4.07,10.69,10.69,0,0,1,3.71-2.74,12.31,12.31,0,0,1,5.14-1,12.94,12.94,0,0,1,4.34.7,10.26,10.26,0,0,1,3.43,2,8.8,8.8,0,0,1,2.24,3.09,9.51,9.51,0,0,1,.75,4.07h-6.14a4.27,4.27,0,0,0-.28-1.78,4,4,0,0,0-1-1.45,4.76,4.76,0,0,0-1.52-1,5.1,5.1,0,0,0-1.95-.36,4.43,4.43,0,0,0-4.16,2.32,7.61,7.61,0,0,0-.84,2.41,15.76,15.76,0,0,0-.25,2.81v.7a16.88,16.88,0,0,0,.23,2.85,7.28,7.28,0,0,0,.83,2.41,4.68,4.68,0,0,0,1.62,1.68A4.84,4.84,0,0,0,181.44,256.27Z" transform="translate(-2.88)" fill="#0071bc"/><path d="M214,253.88H203.8l-2,7.13h-6.94L206,226.88h6L223,261H216Zm-8.62-5.6h7.08L209,235.71Z" transform="translate(-2.88)" fill="#0071bc"/><path d="M232.19,235.64l.4,3.52a9.64,9.64,0,0,1,3.3-2.94,9,9,0,0,1,4.31-1,10.5,10.5,0,0,1,3.52.56,6.88,6.88,0,0,1,2.75,1.79,8.41,8.41,0,0,1,1.8,3.16,15,15,0,0,1,.64,4.7V261h-6.52V245.48a7.61,7.61,0,0,0-.34-2.47,3.59,3.59,0,0,0-1-1.54,3.55,3.55,0,0,0-1.52-.79,8.33,8.33,0,0,0-2-.22,5.64,5.64,0,0,0-2.84.67,5.29,5.29,0,0,0-1.9,1.84v18h-6.54V235.64Z" transform="translate(-2.88)" fill="#0071bc"/><path d="M260.93,235.64l.4,3.52a9.64,9.64,0,0,1,3.3-2.94,9,9,0,0,1,4.31-1,10.5,10.5,0,0,1,3.52.56,6.88,6.88,0,0,1,2.75,1.79,8.41,8.41,0,0,1,1.8,3.16,15,15,0,0,1,.64,4.7V261h-6.52V245.48a7.61,7.61,0,0,0-.34-2.47,3.59,3.59,0,0,0-1-1.54,3.55,3.55,0,0,0-1.52-.79,8.33,8.33,0,0,0-2-.22,5.64,5.64,0,0,0-2.84.67,5.29,5.29,0,0,0-1.9,1.84v18H255V235.64Z" transform="translate(-2.88)" fill="#0071bc"/><path d="M295.64,261.47a14.15,14.15,0,0,1-5.32-1,12.58,12.58,0,0,1-4.1-2.61,11.41,11.41,0,0,1-2.64-3.89,12.41,12.41,0,0,1-.93-4.79v-.94a14.82,14.82,0,0,1,.91-5.31,12.31,12.31,0,0,1,2.55-4.14,11.52,11.52,0,0,1,3.89-2.7,12.34,12.34,0,0,1,4.9-1,12.5,12.5,0,0,1,4.89.9,10.14,10.14,0,0,1,3.63,2.54,11,11,0,0,1,2.26,3.95,16,16,0,0,1,.77,5.1v2.77h-17.2a7.07,7.07,0,0,0,.76,2.36,6.44,6.44,0,0,0,3.5,3,7.22,7.22,0,0,0,2.51.42,9.83,9.83,0,0,0,1.91-.19,9.4,9.4,0,0,0,1.82-.55,8.17,8.17,0,0,0,1.62-.9,6.3,6.3,0,0,0,1.31-1.27l3.26,3.52a9.31,9.31,0,0,1-1.58,1.7,10.75,10.75,0,0,1-2.3,1.48,14.79,14.79,0,0,1-2.94,1A14.57,14.57,0,0,1,295.64,261.47Zm-.77-21a5.12,5.12,0,0,0-2,.39,4.75,4.75,0,0,0-1.61,1.11,6.41,6.41,0,0,0-1.16,1.73,9.49,9.49,0,0,0-.7,2.25h10.69v-.52a6.16,6.16,0,0,0-.4-1.95,4.57,4.57,0,0,0-1-1.58,4.71,4.71,0,0,0-1.61-1.05A5.77,5.77,0,0,0,294.87,240.45Z" transform="translate(-2.88)" fill="#0071bc"/><path d="M322,243.56l5.58-7.92h7L326,248.09,334.84,261h-7L322,252.7l-5.79,8.3h-7.05l8.81-12.91-8.48-12.45h7Z" transform="translate(-2.88)" fill="#0071bc"/></svg>