<svg xmlns="http://www.w3.org/2000/svg" xmlns:xlink="http://www.w3.org/1999/xlink" viewBox="0 0 216 216"><defs><linearGradient id="a" x1="108" y1="216" x2="108" gradientUnits="userSpaceOnUse"><stop offset="0" stop-color="#0071bc"/><stop offset="1" stop-color="#1a8bd6"/></linearGradient><linearGradient id="b" x1="67.5" y1="144" x2="67.5" y2="72" xlink:href="#a"/><linearGradient id="c" x1="67.5" y1="128.25" x2="67.5" y2="87.75" gradientTransform="translate(127.28 -4.46) rotate(60)" xlink:href="#a"/><linearGradient id="d" x1="67.5" y1="128.25" x2="67.5" y2="87.75" gradientTransform="translate(-59.78 112.46) rotate(-60)" xlink:href="#a"/><linearGradient id="e" x1="148.5" y1="144" x2="148.5" y2="72" xlink:href="#a"/><linearGradient id="f" x1="148.5" y1="128.25" x2="148.5" y2="87.75" gradientTransform="translate(167.78 -74.6) rotate(60)" xlink:href="#a"/><linearGradient id="g" x1="148.5" y1="128.25" x2="148.5" y2="87.75" gradientTransform="translate(-19.28 182.6) rotate(-60)" xlink:href="#a"/></defs><title>NumericAnnex</title><path d="M108,9A99,99,0,1,1,9,108,99,99,0,0,1,108,9m0-9A108,108,0,0,0,31.63,184.37,108,108,0,0,0,184.37,31.63,107.29,107.29,0,0,0,108,0Z" fill="url(#a)"/><rect x="63" y="72" width="9" height="72" rx="4.5" ry="4.5" fill="url(#b)"/><rect x="63" y="72" width="9" height="72" rx="4.5" ry="4.5" transform="translate(-59.78 112.46) rotate(-60)" fill="url(#c)"/><rect x="63" y="72" width="9" height="72" rx="4.5" ry="4.5" transform="translate(127.28 -4.46) rotate(60)" fill="url(#d)"/><rect x="144" y="72" width="9" height="72" rx="4.5" ry="4.5" fill="url(#e)"/><rect x="144" y="72" width="9" height="72" rx="4.5" ry="4.5" transform="translate(-19.28 182.6) rotate(-60)" fill="url(#f)"/><rect x="144" y="72" width="9" height="72" rx="4.5" ry="4.5" transform="matrix(0.5, 0.87, -0.87, 0.5, 167.78, -74.6)" fill="url(#g)"/></svg>