<svg xmlns="http://www.w3.org/2000/svg" xmlns:xlink="http://www.w3.org/1999/xlink" viewBox="0 0 891.24 198"><defs><linearGradient id="a" x1="99" y1="198" x2="99" gradientUnits="userSpaceOnUse"><stop offset="0" stop-color="#0071bc"/><stop offset="1" stop-color="#1a8bd6"/></linearGradient></defs><title>NumericAnnex</title><circle cx="99" cy="99" r="99" fill="url(#a)"/><rect x="54" y="63" width="9" height="72" rx="4.5" ry="4.5" fill="#fff"/><rect x="54" y="63" width="9" height="72" rx="4.5" ry="4.5" transform="translate(-56.49 100.16) rotate(-60)" fill="#fff"/><rect x="54" y="63" width="9" height="72" rx="4.5" ry="4.5" transform="translate(114.99 -1.16) rotate(60)" fill="#fff"/><rect x="135" y="63" width="9" height="72" rx="4.5" ry="4.5" fill="#fff"/><rect x="135" y="63" width="9" height="72" rx="4.5" ry="4.5" transform="matrix(0.5, -0.87, 0.87, 0.5, -15.99, 170.31)" fill="#fff"/><rect x="135" y="63" width="9" height="72" rx="4.5" ry="4.5" transform="translate(155.49 -71.31) rotate(60)" fill="#fff"/><path d="M268.53,134.3h-13.4L235.75,89.37V134.3H222.21V64.63h13.54L255,109.37l0-44.74h13.49Z" fill="#0071bc"/><path d="M312.55,127a20,20,0,0,1-6.34,6.08,15.61,15.61,0,0,1-8.11,2.2,21,21,0,0,1-7.37-1.24,14.12,14.12,0,0,1-5.74-3.95,18.68,18.68,0,0,1-3.71-6.89A33.82,33.82,0,0,1,280,113.15V82.53h13.3v30.72a26.18,26.18,0,0,0,.46,5.31,8.57,8.57,0,0,0,1.46,3.47,5.55,5.55,0,0,0,2.63,1.89,12,12,0,0,0,4,.57,12.34,12.34,0,0,0,6.46-1.51,9.78,9.78,0,0,0,3.78-4.14V82.53h13.35V134.3H313.31Z" fill="#0071bc"/><path d="M347.33,82.53l.38,6.27a13,13,0,0,1,4.09-5.29,10.33,10.33,0,0,1,6.34-1.94q6.27,0,8.18,5.5a11.58,11.58,0,0,1,3.9-4,10.7,10.7,0,0,1,5.72-1.46,11.12,11.12,0,0,1,4.38.86,9,9,0,0,1,3.54,2.75,13.66,13.66,0,0,1,2.34,4.88,27.4,27.4,0,0,1,.84,7.3V134.3H374.94v-37a8,8,0,0,0-.31-2.44,3.89,3.89,0,0,0-.84-1.51,2.84,2.84,0,0,0-1.22-.77,4.74,4.74,0,0,0-1.41-.22,4.09,4.09,0,0,0-2.34.65,4.29,4.29,0,0,0-1.48,1.75V134.3H355.61v-37a8.67,8.67,0,0,0-.29-2.44,3.62,3.62,0,0,0-.79-1.48,2.77,2.77,0,0,0-1.17-.74,4.67,4.67,0,0,0-1.44-.22,3.49,3.49,0,0,0-2.46.86,5.76,5.76,0,0,0-1.46,2.3V134.3H335.89V82.53Z" fill="#0071bc"/><path d="M422.36,135.26a28.89,28.89,0,0,1-10.86-2,25.68,25.68,0,0,1-8.37-5.34,23.28,23.28,0,0,1-5.38-7.94,25.33,25.33,0,0,1-1.89-9.79v-1.91a30.26,30.26,0,0,1,1.87-10.84A25.14,25.14,0,0,1,402.93,89a23.53,23.53,0,0,1,7.94-5.5,25.2,25.2,0,0,1,10-2,25.54,25.54,0,0,1,10,1.84,20.72,20.72,0,0,1,7.42,5.19,22.43,22.43,0,0,1,4.62,8.06,32.61,32.61,0,0,1,1.58,10.41v5.65H409.34a14.43,14.43,0,0,0,1.55,4.81,13.15,13.15,0,0,0,7.15,6.2,14.74,14.74,0,0,0,5.12.86,20,20,0,0,0,3.9-.38,19.12,19.12,0,0,0,3.71-1.12,16.66,16.66,0,0,0,3.3-1.84,12.86,12.86,0,0,0,2.68-2.58l6.65,7.18a19,19,0,0,1-3.23,3.47,21.89,21.89,0,0,1-4.69,3,30.12,30.12,0,0,1-6,2.13A29.77,29.77,0,0,1,422.36,135.26Zm-1.58-42.92a10.45,10.45,0,0,0-4.12.79,9.71,9.71,0,0,0-3.28,2.27A13.12,13.12,0,0,0,411,98.94a19.32,19.32,0,0,0-1.44,4.59H431.4v-1.05a12.6,12.6,0,0,0-.81-4,9.34,9.34,0,0,0-2.06-3.23,9.61,9.61,0,0,0-3.28-2.15A11.79,11.79,0,0,0,420.78,92.34Z" fill="#0071bc"/><path d="M487.87,81.57a35.68,35.68,0,0,1,5.57.41,32.33,32.33,0,0,1,4.14.89l-2,13.25a46,46,0,0,0-5.38-.93,46.82,46.82,0,0,0-5.24-.31A16.49,16.49,0,0,0,476,97a13,13,0,0,0-5,6.17v31.1h-13.3V82.53h12.39L470.7,91a23.76,23.76,0,0,1,7.56-6.91A19.07,19.07,0,0,1,487.87,81.57Z" fill="#0071bc"/><path d="M508.09,82.53h28.18v41h14V134.3H508.09V123.49h14.74V93.39H508.09Zm13.78-13.25a7.32,7.32,0,0,1,.55-2.85A6.4,6.4,0,0,1,524,64.17a7.21,7.21,0,0,1,2.42-1.46,8.91,8.91,0,0,1,3.13-.53,7.81,7.81,0,0,1,5.62,2,7.28,7.28,0,0,1,0,10.19,7.8,7.8,0,0,1-5.62,2,8.89,8.89,0,0,1-3.13-.53A7.19,7.19,0,0,1,524,74.37a6.39,6.39,0,0,1-1.56-2.25A7.31,7.31,0,0,1,521.87,69.27Z" fill="#0071bc"/><path d="M581.9,124.64a12,12,0,0,0,3.73-.57,10,10,0,0,0,3.11-1.63,7.4,7.4,0,0,0,2.08-2.54,6.49,6.49,0,0,0,.65-3.3H604a15.44,15.44,0,0,1-1.65,7.46A18.42,18.42,0,0,1,597.6,130a22.85,22.85,0,0,1-7,3.9,25.19,25.19,0,0,1-8.45,1.41,25.69,25.69,0,0,1-10.58-2A21.26,21.26,0,0,1,564,127.7a24,24,0,0,1-4.59-8.3,32.7,32.7,0,0,1-1.56-10.22v-1.44a33.16,33.16,0,0,1,1.53-10.22,23.55,23.55,0,0,1,4.59-8.3,21.82,21.82,0,0,1,7.58-5.6A25.14,25.14,0,0,1,582,81.57,26.43,26.43,0,0,1,590.9,83a21,21,0,0,1,7,4,18,18,0,0,1,4.57,6.32,19.44,19.44,0,0,1,1.53,8.3H591.47A8.73,8.73,0,0,0,590.9,98a8.19,8.19,0,0,0-2-3,9.74,9.74,0,0,0-3.11-2,10.43,10.43,0,0,0-4-.74,9,9,0,0,0-8.49,4.74,15.49,15.49,0,0,0-1.72,4.93,32.09,32.09,0,0,0-.5,5.74v1.44a34.43,34.43,0,0,0,.48,5.81,14.87,14.87,0,0,0,1.7,4.93,9.56,9.56,0,0,0,3.3,3.42A9.87,9.87,0,0,0,581.9,124.64Z" fill="#0071bc"/><path d="M647.69,119.75H626.77l-4.12,14.55H608.49l22.83-69.67h12.2l22.39,69.67H651.75Zm-17.61-11.44h14.45L637.4,82.67Z" fill="#0071bc"/><path d="M684.06,82.53l.81,7.18a19.68,19.68,0,0,1,6.75-6,18.34,18.34,0,0,1,8.8-2.13,21.45,21.45,0,0,1,7.18,1.15,14,14,0,0,1,5.62,3.66,17.17,17.17,0,0,1,3.69,6.46,30.58,30.58,0,0,1,1.32,9.59V134.3h-13.3V102.62a15.53,15.53,0,0,0-.69-5,6.88,6.88,0,0,0-5.1-4.74,17,17,0,0,0-4.12-.45,11.51,11.51,0,0,0-5.79,1.36,10.78,10.78,0,0,0-3.88,3.76v36.8H672V82.53Z" fill="#0071bc"/><path d="M742,82.53l.81,7.18a19.68,19.68,0,0,1,6.75-6,18.34,18.34,0,0,1,8.8-2.13,21.45,21.45,0,0,1,7.18,1.15,14,14,0,0,1,5.62,3.66,17.17,17.17,0,0,1,3.69,6.46,30.58,30.58,0,0,1,1.32,9.59V134.3h-13.3V102.62a15.53,15.53,0,0,0-.69-5,6.88,6.88,0,0,0-5.1-4.74,17,17,0,0,0-4.12-.45,11.51,11.51,0,0,0-5.79,1.36,10.78,10.78,0,0,0-3.88,3.76v36.8H729.92V82.53Z" fill="#0071bc"/><path d="M812.07,135.26a28.89,28.89,0,0,1-10.86-2,25.68,25.68,0,0,1-8.37-5.34,23.28,23.28,0,0,1-5.38-7.94,25.33,25.33,0,0,1-1.89-9.79v-1.91a30.26,30.26,0,0,1,1.87-10.84A25.14,25.14,0,0,1,792.64,89a23.53,23.53,0,0,1,7.94-5.5,25.2,25.2,0,0,1,10-2,25.54,25.54,0,0,1,10,1.84A20.72,20.72,0,0,1,828,88.6a22.43,22.43,0,0,1,4.62,8.06,32.61,32.61,0,0,1,1.58,10.41v5.65H799.06a14.43,14.43,0,0,0,1.55,4.81,13.15,13.15,0,0,0,7.15,6.2,14.74,14.74,0,0,0,5.12.86,20,20,0,0,0,3.9-.38,19.12,19.12,0,0,0,3.71-1.12,16.66,16.66,0,0,0,3.3-1.84,12.86,12.86,0,0,0,2.68-2.58l6.65,7.18a19,19,0,0,1-3.23,3.47,21.89,21.89,0,0,1-4.69,3,30.12,30.12,0,0,1-6,2.13A29.77,29.77,0,0,1,812.07,135.26Zm-1.58-42.92a10.45,10.45,0,0,0-4.12.79,9.71,9.71,0,0,0-3.28,2.27,13.12,13.12,0,0,0-2.37,3.54,19.32,19.32,0,0,0-1.44,4.59h21.82v-1.05a12.6,12.6,0,0,0-.81-4,9.34,9.34,0,0,0-2.06-3.23A9.61,9.61,0,0,0,815,93.13,11.79,11.79,0,0,0,810.49,92.34Z" fill="#0071bc"/><path d="M864.92,98.7l11.39-16.17h14.31l-17.37,25.41,18,26.37H876.88L865,117.36,853.15,134.3h-14.4l18-26.37L839.41,82.53h14.31Z" fill="#0071bc"/></svg>